<?xml version="1.0" encoding="UTF-8" standalone="no" ?>
<!DOCTYPE svg PUBLIC "-//W3C//DTD SVG 1.1//EN" "http://www.w3.org/Graphics/SVG/1.1/DTD/svg11.dtd">
<svg xmlns="http://www.w3.org/2000/svg" xmlns:xlink="http://www.w3.org/1999/xlink" version="1.1" width="1080" height="1080" viewBox="0 0 1080 1080" xml:space="preserve">
<desc>Created with Fabric.js 4.2.0</desc>
<defs>
</defs>
<rect x="0" y="0" width="100%" height="100%" fill="transparent"></rect>
<g transform="matrix(1 0 0 1 540 540)" id="18bf137d-111c-4fe8-9f19-1ed254611065"  >
</g>
<g transform="matrix(1 0 0 1 540 540)" id="d18f53a8-3f75-474b-820f-a368d39cdfa6"  >
<rect style="stroke: none; stroke-width: 1; stroke-dasharray: none; stroke-linecap: butt; stroke-dashoffset: 0; stroke-linejoin: miter; stroke-miterlimit: 4; fill: rgb(255,255,255); fill-opacity: 0; fill-rule: nonzero; opacity: 1;" vector-effect="non-scaling-stroke"  x="-540" y="-540" rx="0" ry="0" width="1080" height="1080" />
</g>
<g transform="matrix(2.77 0 0 2.77 540 540)"  >
<path style="stroke: rgb(0,0,0); stroke-width: 0; stroke-dasharray: none; stroke-linecap: butt; stroke-dashoffset: 0; stroke-linejoin: miter; stroke-miterlimit: 4; fill: rgb(160,164,217); fill-rule: nonzero; opacity: 1;" vector-effect="non-scaling-stroke"  transform=" translate(-113.76, -148.87)" d="M 113.75 297.73 L 148.86 297.73 C 151.67592408735288 297.72708869069953 154.48976837724828 297.57688347949517 157.29000000000002 297.28000000000003 C 197.2116243885608 292.9302229553364 227.46580429816552 259.23787221578795 227.51000000000002 219.08 L 227.51000000000002 0 L 105.33 0 L 105.33 280.51 C 55.29864869601999 276.09847879374183 16.909599616963362 234.22543260680973 16.85000000000001 184 L 16.85 148.86 C 16.693561946034357 144.31992597719042 12.967768428757832 140.72030156733987 8.425 140.72030156733987 C 3.882231571242169 140.72030156733987 0.15643805396564403 144.31992597719045 0 148.86 L 0 184 C 0.0873373472186884 243.5165108877904 45.9821291386368 292.9319512852529 105.33000000000001 297.41 C 108.11 297.63 110.92 297.73 113.75 297.73 Z M 157.29 16.85 L 210.66 16.85 L 210.66 219.08 C 210.624069966455 249.9397427820309 187.85654951698424 276.05605535307456 157.29 280.3 Z M 122.17999999999999 16.85 L 140.44 16.85 L 140.44 280.85 L 122.18 280.85 Z" stroke-linecap="round" />
</g>
</svg>